<svg width="1658" height="425" viewBox="0 0 1658 425" fill="none" xmlns="http://www.w3.org/2000/svg">
<path d="M594.506 152.211C617.517 152.211 635.531 158.836 648.548 172.085C661.797 185.334 668.421 204.859 668.421 230.659V337H643.666V233.1C643.666 214.04 639.018 199.513 629.72 189.518C620.655 179.523 607.755 174.525 591.019 174.525C571.959 174.525 556.967 180.453 546.042 192.307C535.118 203.929 529.655 220.083 529.655 240.77V337H504.901V233.1C504.901 214.04 500.252 199.513 490.954 189.518C481.889 179.523 468.873 174.525 451.905 174.525C433.077 174.525 418.085 180.453 406.928 192.307C396.003 203.929 390.541 220.083 390.541 240.77V337H365.786V153.606H389.495V187.077C396.003 175.92 405.068 167.32 416.69 161.276C428.312 155.233 441.677 152.211 456.786 152.211C472.127 152.211 485.376 155.465 496.533 161.974C507.922 168.482 516.406 178.128 521.985 190.912C528.725 178.826 538.372 169.412 550.923 162.671C563.707 155.698 578.235 152.211 594.506 152.211ZM807.71 338.743C790.044 338.743 774.122 334.792 759.944 326.889C745.765 318.754 734.608 307.597 726.473 293.418C718.337 279.239 714.27 263.201 714.27 245.303C714.27 227.405 718.337 211.367 726.473 197.188C734.608 183.009 745.765 171.969 759.944 164.066C774.122 156.163 790.044 152.211 807.71 152.211C825.375 152.211 841.297 156.163 855.476 164.066C869.655 171.969 880.696 183.009 888.598 197.188C896.734 211.367 900.801 227.405 900.801 245.303C900.801 263.201 896.734 279.239 888.598 293.418C880.696 307.597 869.655 318.754 855.476 326.889C841.297 334.792 825.375 338.743 807.71 338.743ZM807.71 316.778C820.726 316.778 832.348 313.872 842.576 308.061C853.035 302.018 861.171 293.534 866.982 282.609C872.793 271.685 875.698 259.249 875.698 245.303C875.698 231.357 872.793 218.921 866.982 207.997C861.171 197.072 853.035 188.704 842.576 182.893C832.348 176.85 820.726 173.828 807.71 173.828C794.693 173.828 782.955 176.85 772.495 182.893C762.268 188.704 754.133 197.072 748.089 207.997C742.278 218.921 739.373 231.357 739.373 245.303C739.373 259.249 742.278 271.685 748.089 282.609C754.133 293.534 762.268 302.018 772.495 308.061C782.955 313.872 794.693 316.778 807.71 316.778ZM1022.82 338.743C1005.15 338.743 989.228 334.792 975.049 326.889C960.871 318.754 949.713 307.597 941.578 293.418C933.443 279.239 929.375 263.201 929.375 245.303C929.375 227.405 933.443 211.367 941.578 197.188C949.713 183.009 960.871 171.969 975.049 164.066C989.228 156.163 1005.15 152.211 1022.82 152.211C1040.48 152.211 1056.4 156.163 1070.58 164.066C1084.76 171.969 1095.8 183.009 1103.7 197.188C1111.84 211.367 1115.91 227.405 1115.91 245.303C1115.91 263.201 1111.84 279.239 1103.7 293.418C1095.8 307.597 1084.76 318.754 1070.58 326.889C1056.4 334.792 1040.48 338.743 1022.82 338.743ZM1022.82 316.778C1035.83 316.778 1047.45 313.872 1057.68 308.061C1068.14 302.018 1076.28 293.534 1082.09 282.609C1087.9 271.685 1090.8 259.249 1090.8 245.303C1090.8 231.357 1087.9 218.921 1082.09 207.997C1076.28 197.072 1068.14 188.704 1057.68 182.893C1047.45 176.85 1035.83 173.828 1022.82 173.828C1009.8 173.828 998.061 176.85 987.601 182.893C977.374 188.704 969.238 197.072 963.195 207.997C957.384 218.921 954.478 231.357 954.478 245.303C954.478 259.249 957.384 271.685 963.195 282.609C969.238 293.534 977.374 302.018 987.601 308.061C998.061 313.872 1009.8 316.778 1022.82 316.778ZM1251.17 152.211C1274.18 152.211 1292.43 158.952 1305.91 172.433C1319.62 185.682 1326.48 205.091 1326.48 230.659V337H1301.73V233.1C1301.73 214.04 1296.96 199.513 1287.43 189.518C1277.9 179.523 1264.3 174.525 1246.64 174.525C1226.88 174.525 1211.19 180.453 1199.57 192.307C1188.18 203.929 1182.48 220.083 1182.48 240.77V337H1157.73V153.606H1181.44V187.426C1188.18 176.269 1197.48 167.669 1209.33 161.625C1221.42 155.349 1235.36 152.211 1251.17 152.211ZM1376.25 78.2959H1401.01V337H1376.25V78.2959ZM1455.94 153.606H1480.7V337H1455.94V153.606ZM1468.49 113.51C1463.38 113.51 1459.08 111.767 1455.59 108.28C1452.11 104.794 1450.36 100.61 1450.36 95.7288C1450.36 91.08 1452.11 87.0123 1455.59 83.5257C1459.08 80.0392 1463.38 78.2959 1468.49 78.2959C1473.61 78.2959 1477.91 80.0392 1481.39 83.5257C1484.88 86.7799 1486.62 90.7313 1486.62 95.3801C1486.62 100.494 1484.88 104.794 1481.39 108.28C1477.91 111.767 1473.61 113.51 1468.49 113.51ZM1646.15 325.843C1641.5 330.027 1635.69 333.281 1628.72 335.605C1621.98 337.697 1614.89 338.743 1607.45 338.743C1590.25 338.743 1577 334.095 1567.7 324.797C1558.41 315.499 1553.76 302.367 1553.76 285.399V174.525H1520.98V153.606H1553.76V113.51H1578.51V153.606H1634.3V174.525H1578.51V284.004C1578.51 294.929 1581.19 303.296 1586.53 309.107C1592.11 314.686 1600.01 317.475 1610.24 317.475C1615.35 317.475 1620.24 316.662 1624.88 315.035C1629.77 313.407 1633.95 311.083 1637.44 308.061L1646.15 325.843Z" fill="black"/>
<path d="M270.601 252.809C268.574 274.743 260.342 295.646 246.868 313.072C233.395 330.499 215.237 343.728 194.519 351.211C173.802 358.694 151.382 360.123 129.882 355.329C108.382 350.535 88.6927 339.717 73.1168 324.141C57.5409 308.565 46.7231 288.876 41.9292 267.376C37.1353 245.876 38.5636 223.456 46.0469 202.738C53.5302 182.021 66.759 163.863 84.1855 150.39C101.612 136.916 122.515 128.684 144.449 126.657C131.608 144.031 125.428 165.436 127.035 186.981C128.641 208.525 137.927 228.777 153.204 244.054C168.48 259.331 188.733 268.617 210.277 270.223C231.822 271.83 253.227 265.65 270.601 252.809Z" stroke="black" stroke-width="25.7715" stroke-linecap="round" stroke-linejoin="round"/>
</svg>
