<?xml version="1.0" standalone="no"?>
<!DOCTYPE svg PUBLIC "-//W3C//DTD SVG 20010904//EN"
 "http://www.w3.org/TR/2001/REC-SVG-20010904/DTD/svg10.dtd">
<svg version="1.0" xmlns="http://www.w3.org/2000/svg"
 width="700.000000pt" height="700.000000pt" viewBox="0 0 700.000000 700.000000"
 preserveAspectRatio="xMidYMid meet">
<metadata>
Created by potrace 1.14, written by Peter Selinger 2001-2017
</metadata>
<g transform="translate(0.000000,700.000000) scale(0.100000,-0.100000)"
fill="#000000" stroke="none">
<path d="M1240 6993 c-80 -9 -264 -56 -343 -87 -230 -90 -430 -235 -581 -421
-72 -89 -64 -78 -117 -165 -78 -130 -136 -282 -175 -460 -18 -82 -19 -177 -19
-2325 0 -1232 3 -2266 7 -2298 39 -300 180 -581 402 -802 237 -234 521 -370
846 -402 88 -9 4355 -9 4450 0 135 13 237 36 365 84 315 117 584 358 742 663
44 84 97 215 108 267 27 126 36 180 43 243 9 90 8 4431 -1 4478 -4 17 -9 47
-12 65 -26 165 -104 373 -193 511 -207 324 -548 560 -902 626 -36 7 -76 15
-90 18 -28 7 -4474 11 -4530 5z"/>
</g>
</svg>
